HIERARCHY
ROOT SpineBase
{
  OFFSET 0.000000 0.000000 0.000000
  CHANNELS 6 Xposition Yposition Zposition Zrotation Xrotation Yrotation
  JOINT SpineMid
  {
    OFFSET 0.000000 30.729464 -0.000000
    CHANNELS 3 Zrotation Xrotation Yrotation
    JOINT SpineShoulder
    {
      OFFSET -0.059655 22.832643 -0.656932
      CHANNELS 3 Zrotation Xrotation Yrotation
      JOINT Neck
      {
        OFFSET -0.088912 7.547615 -0.548288
        CHANNELS 3 Zrotation Xrotation Yrotation
        JOINT Head
        {
          OFFSET -1.566401 11.833082 1.146183
          CHANNELS 3 Zrotation Xrotation Yrotation
          End Site
          {
            OFFSET 0 0 0
          }
        }
      }
      JOINT ShoulderLeft
      {
        OFFSET -16.179743 -3.835464 3.390263
        CHANNELS 3 Zrotation Xrotation Yrotation
        JOINT ElbowLeft
        {
          OFFSET -3.208285 -25.949759 -0.969260
          CHANNELS 3 Zrotation Xrotation Yrotation
          JOINT WristLeft
          {
            OFFSET 0.997374 -19.716852 -8.922821
            CHANNELS 3 Zrotation Xrotation Yrotation
            JOINT HandLeft
            {
              OFFSET 1.035994 -3.994987 -0.749735
              CHANNELS 3 Zrotation Xrotation Yrotation
              JOINT HandTipLeft
              {
                OFFSET -0.743230 -5.877977 -1.125156
                CHANNELS 3 Zrotation Xrotation Yrotation
                End Site
                {
                  OFFSET 0 0 0
                }
              }
              JOINT ThumbLeft
              {
                OFFSET -3.674790 -1.064161 -1.161507
                CHANNELS 3 Zrotation Xrotation Yrotation
                End Site
                {
                  OFFSET 0 0 0
                }
              }
            }
          }
        }
      }
      JOINT ShoulderRight
      {
        OFFSET 15.404798 -2.969977 -4.158444
        CHANNELS 3 Zrotation Xrotation Yrotation
        JOINT ElbowRight
        {
          OFFSET 10.788885 -25.018503 3.909427
          CHANNELS 3 Zrotation Xrotation Yrotation
          JOINT WristRight
          {
            OFFSET 2.303704 -21.501910 -1.954612
            CHANNELS 3 Zrotation Xrotation Yrotation
            JOINT HandRight
            {
              OFFSET -0.860378 -4.568336 -0.635608
              CHANNELS 3 Zrotation Xrotation Yrotation
              JOINT HandTipRight
              {
                OFFSET 0.255675 -5.840043 -0.471155
                CHANNELS 3 Zrotation Xrotation Yrotation
                End Site
                {
                  OFFSET 0 0 0
                }
              }
              JOINT ThumbRight
              {
                OFFSET -2.756699 -0.155241 -0.778088
                CHANNELS 3 Zrotation Xrotation Yrotation
                End Site
                {
                  OFFSET 0 0 0
                }
              }
            }
          }
        }
      }
    }
  }
  JOINT HipLeft
  {
    OFFSET -7.625795 0.621656 -1.838286
    CHANNELS 3 Zrotation Xrotation Yrotation
    JOINT KneeLeft
    {
      OFFSET -4.537095 -31.412767 0.236982
      CHANNELS 3 Zrotation Xrotation Yrotation
      JOINT AnkleLeft
      {
        OFFSET -3.135543 -31.920251 0.449330
        CHANNELS 3 Zrotation Xrotation Yrotation
        JOINT FootLeft
        {
          OFFSET -5.966394 -7.288561 -8.979086
          CHANNELS 3 Zrotation Xrotation Yrotation
          End Site
          {
            OFFSET 0 0 0
          }
        }
      }
    }
  }
  JOINT HipRight
  {
    OFFSET 6.134035 0.721524 -4.988135
    CHANNELS 3 Zrotation Xrotation Yrotation
    JOINT KneeRight
    {
      OFFSET 6.150282 -25.916403 2.974241
      CHANNELS 3 Zrotation Xrotation Yrotation
      JOINT AnkleRight
      {
        OFFSET 3.373344 -33.734580 6.131679
        CHANNELS 3 Zrotation Xrotation Yrotation
        JOINT FootRight
        {
          OFFSET 1.731658 -8.925330 -8.846162
          CHANNELS 3 Zrotation Xrotation Yrotation
          End Site
          {
            OFFSET 0 0 0
          }
        }
      }
    }
  }
}
MOTION
Frames: 13
Frame Time: 0.033333
88.435101 70.486801 392.487846 0.000000 -0.000000 12.893780 0.000000 0.000000 -12.893780 -0.000000 0.000000 0.000000 -0.000000 0.000000 0.000000 0.000000 0.000000 0.000000 -0.000000 0.000000 0.000000 -0.000000 0.000000 0.000000 -0.000000 0.000000 0.000000 -0.000000 0.000000 0.000000 0.000000 0.000000 0.000000 0.000000 0.000000 0.000000 -0.000000 0.000000 0.000000 -0.000000 0.000000 0.000000 -0.000000 0.000000 0.000000 -0.000000 0.000000 0.000000 0.000000 0.000000 0.000000 0.000000 0.000000 0.000000 0.000000 0.000000 -12.893780 -0.000000 0.000000 0.000000 -0.000000 0.000000 0.000000 0.000000 0.000000 0.000000 0.000000 0.000000 -12.893780 -0.000000 0.000000 0.000000 -0.000000 0.000000 0.000000 0.000000 0.000000 0.000000
88.660365 70.465736 392.534973 0.175254 0.003845 13.097980 -0.171566 0.035970 -13.097932 -0.000000 0.000000 0.000000 -0.000000 0.000000 0.000000 0.000000 0.000000 0.000000 0.699173 0.807488 -0.130942 -0.697396 -0.809024 0.121091 2.166846 1.863824 0.041100 2.429845 -1.234514 -0.951290 0.000000 0.000000 0.000000 0.000000 0.000000 0.000000 -3.020782 2.598457 0.727974 -0.227276 2.104567 0.195464 0.901645 1.212733 -1.516692 2.444866 0.043974 1.156865 0.000000 0.000000 0.000000 0.000000 0.000000 0.000000 -0.171566 0.035970 -13.097932 -0.000000 0.000000 0.000000 0.156114 4.702177 -3.857731 0.000000 0.000000 0.000000 -0.171566 0.035970 -13.097932 -0.000000 0.000000 0.000000 0.970139 0.581820 -0.847924 0.000000 0.000000 0.000000
88.822205 70.450953 392.558567 0.279917 0.024755 13.383523 -0.278045 0.040709 -13.383484 -0.000000 0.000000 0.000000 -0.000000 0.000000 0.000000 0.000000 0.000000 0.000000 1.255892 1.451732 -0.242530 -1.250141 -1.456687 0.210725 3.972034 3.182825 -0.030102 4.041905 -1.972628 -1.529650 0.000000 0.000000 0.000000 0.000000 0.000000 0.000000 -5.792309 4.995264 1.546686 -0.636109 3.941828 0.445606 1.784642 1.249706 -2.609017 4.220054 1.312671 2.167348 0.000000 0.000000 0.000000 0.000000 0.000000 0.000000 -0.278045 0.040709 -13.383484 -0.000000 0.000000 0.000000 0.475604 8.841787 -7.202999 0.000000 0.000000 0.000000 -0.278045 0.040709 -13.383484 -0.000000 0.000000 0.000000 1.853658 1.020206 -1.636252 0.000000 0.000000 0.000000
88.920622 70.442451 392.558630 0.313863 0.062759 13.750154 -0.319785 0.013642 -13.750288 -0.000000 0.000000 0.000000 -0.000000 0.000000 0.000000 0.000000 0.000000 0.000000 1.669037 1.933222 -0.329928 -1.658832 -1.941984 0.273649 5.302188 3.825671 -0.177278 5.030766 -2.037538 -1.871268 0.000000 0.000000 0.000000 0.000000 0.000000 0.000000 -8.286712 7.175883 2.420912 -1.200443 5.448550 0.697492 2.423127 0.760364 -3.424952 5.422676 2.987004 3.037515 0.000000 0.000000 0.000000 0.000000 0.000000 0.000000 -1.068347 0.515776 -13.797914 0.846729 -0.309071 0.053368 0.822900 12.253840 -9.893532 0.000000 0.000000 0.000000 -1.038681 0.403421 -13.789218 0.791084 -0.207167 0.042976 2.622455 1.300606 -2.340022 0.000000 0.000000 0.000000
88.955615 70.440230 392.535161 0.276968 0.117885 14.197057 -0.297422 -0.046355 -14.197462 -0.000000 0.000000 0.000000 -0.000000 0.000000 0.000000 0.000000 0.000000 0.000000 1.937962 2.252727 -0.389577 -1.924107 -2.264570 0.313437 6.051695 3.684198 -0.368579 5.574259 -1.293826 -2.065652 0.000000 0.000000 0.000000 0.000000 0.000000 0.000000 -10.479625 9.136644 3.317715 -1.902599 6.597994 0.902424 2.675374 0.132276 -4.063320 6.175116 4.552696 3.790492 0.000000 0.000000 0.000000 0.000000 0.000000 0.000000 -1.093118 0.555297 -14.256852 0.919378 -0.387113 0.066030 1.067981 14.861866 -11.830302 0.000000 0.000000 0.000000 -1.050997 0.362377 -14.240642 0.830970 -0.210769 0.046786 3.251359 1.413536 -2.936514 0.000000 0.000000 0.000000
88.927185 70.444290 392.488160 0.169111 0.190164 14.722828 -0.211888 -0.140941 -14.723369 -0.000000 0.000000 0.000000 0.575297 -0.566290 -0.127821 0.000000 0.000000 0.000000 2.062419 2.411033 -0.419180 -2.046563 -2.424505 0.332463 6.131463 2.681095 -0.589230 5.809619 0.355064 -2.147303 0.000000 0.000000 0.000000 0.000000 0.000000 0.000000 -12.348315 10.881725 4.207531 -2.737123 7.392647 1.019941 2.442165 -0.409611 -4.591279 6.615356 5.697981 4.435526 0.000000 0.000000 0.000000 0.000000 0.000000 0.000000 -0.953277 0.522875 -14.793020 0.886332 -0.452470 0.075621 1.109780 16.650247 -12.957901 0.000000 0.000000 0.000000 -0.211888 -0.140941 -14.723369 -0.000000 0.000000 0.000000 3.720134 1.354981 -3.407116 0.000000 0.000000 0.000000
88.869531 70.458544 392.441106 -0.019899 0.353077 14.959844 -0.071920 -0.346247 -14.960000 -0.000000 0.000000 0.000000 0.606824 -0.599736 -0.134967 0.000000 0.000000 0.000000 1.922231 2.344096 -0.401511 -2.635772 -1.977250 0.642840 3.194958 -1.944226 -1.157670 7.185501 5.949255 -2.158785 0.000000 0.000000 0.000000 0.000000 0.000000 0.000000 -14.201393 12.885930 5.339294 -3.688505 7.506495 0.829640 0.604854 0.768795 -5.170275 7.707910 4.405244 5.195695 0.000000 0.000000 0.000000 0.000000 0.000000 0.000000 -0.663134 0.356420 -15.041557 0.753337 -0.525137 0.085062 1.178752 15.699111 -12.475638 0.000000 0.000000 0.000000 -0.071920 -0.346247 -14.960000 -0.000000 0.000000 0.000000 3.496505 0.325140 -3.382870 0.000000 0.000000 0.000000
88.654311 70.490618 392.299346 -0.336291 0.482730 15.875487 0.191426 -0.556304 -15.873141 -0.000000 0.000000 0.000000 -0.000000 0.000000 0.000000 0.000000 0.000000 0.000000 1.656882 2.206781 -0.367064 -2.604939 -1.972502 0.714615 1.051377 -3.398303 -1.282391 9.160166 6.742792 -2.204312 0.000000 0.000000 0.000000 0.000000 0.000000 0.000000 -15.267828 14.448222 6.293221 -5.151772 8.400355 0.764590 -1.630913 0.242858 -5.856895 8.628009 2.241894 5.305819 0.000000 0.000000 0.000000 0.000000 0.000000 0.000000 0.191426 -0.556304 -15.873141 -0.000000 0.000000 0.000000 2.406072 21.212233 -17.159903 0.000000 0.000000 0.000000 0.191426 -0.556304 -15.873141 -0.000000 0.000000 0.000000 2.312800 -1.565268 -2.589183 0.000000 0.000000 0.000000
88.350323 70.515582 392.124397 -0.712918 0.550388 17.183627 0.518539 -0.736408 -17.176871 -0.000000 0.000000 0.000000 -0.000000 0.000000 0.000000 0.000000 0.000000 0.000000 1.361361 1.862073 -0.303473 -2.406662 -1.586717 0.718110 -0.602727 -8.130748 -2.381685 8.881451 10.523103 -1.287694 0.000000 0.000000 0.000000 0.000000 0.000000 0.000000 -15.539003 15.629281 7.041855 -7.151789 8.277984 0.299606 -2.199061 -1.685475 -6.122811 6.910705 4.091432 5.112307 0.000000 0.000000 0.000000 0.000000 0.000000 0.000000 0.518539 -0.736408 -17.176871 -0.000000 0.000000 0.000000 -2.981085 18.513242 -9.087344 0.000000 0.000000 0.000000 0.518539 -0.736408 -17.176871 -0.000000 0.000000 0.000000 3.766062 -0.183206 -3.744233 0.000000 0.000000 0.000000
88.015190 70.530851 391.942457 -1.092607 0.556209 18.585578 0.858455 -0.875348 -18.573717 -0.000000 0.000000 0.000000 0.545127 0.765769 0.044867 0.000000 0.000000 0.000000 1.102956 1.376764 -0.224841 -2.713929 -1.622152 0.876712 -0.266060 -9.508977 -3.127905 8.155389 14.152339 -1.098607 0.000000 0.000000 0.000000 0.000000 0.000000 0.000000 -15.861122 16.099710 7.346469 -8.008550 7.699902 -0.007675 -4.563902 -2.887662 -6.299680 8.029768 6.788689 5.248263 0.000000 0.000000 0.000000 0.000000 0.000000 0.000000 0.858455 -0.875348 -18.573717 -0.000000 0.000000 0.000000 -3.755936 16.817781 -7.172460 0.000000 0.000000 0.000000 1.722799 -1.582660 -18.529216 -1.044207 0.395826 -0.022355 4.827942 -2.610429 -5.256511 0.000000 0.000000 0.000000
87.690485 70.534208 391.768946 -1.418136 0.500137 19.950834 1.162533 -0.953854 -19.934966 -0.000000 0.000000 0.000000 0.579342 1.536520 0.139249 0.000000 0.000000 0.000000 0.939983 0.836477 -0.145499 -2.955396 -2.070242 0.937220 2.085945 -4.254601 -2.328336 4.874739 9.201508 -0.645846 0.000000 0.000000 0.000000 0.000000 0.000000 0.000000 -16.056237 15.824283 7.171710 -8.227349 7.139219 0.007513 -6.443545 -3.148814 -6.203592 8.975938 6.809254 4.904459 0.000000 0.000000 0.000000 0.000000 0.000000 0.000000 2.197120 -0.633331 -20.008674 -0.862336 -0.655215 0.083106 0.773619 6.848395 -6.184031 0.000000 0.000000 0.000000 2.504744 -2.125908 -19.861476 -1.660395 0.645817 -0.028059 1.631384 2.891081 -1.067479 0.000000 0.000000 0.000000
87.405689 70.527739 391.620484 -1.663081 0.380758 21.113856 0.566651 -0.608324 -21.134404 -0.101206 -0.036660 -0.048132 1.669865 2.362016 0.305986 0.000000 0.000000 0.000000 1.855601 0.314529 0.003828 -4.124738 -2.522084 1.373810 6.196232 1.028297 -2.338120 2.639448 3.951186 -0.840077 0.000000 0.000000 0.000000 0.000000 0.000000 0.000000 -15.695045 15.476385 7.032459 -7.088491 6.516386 0.164036 -5.082010 -5.708364 -5.978295 8.079009 9.644149 4.548869 0.000000 0.000000 0.000000 0.000000 0.000000 0.000000 2.824790 -0.721567 -21.171403 -1.230967 -0.726279 0.087672 1.993975 4.456258 -5.977063 0.000000 0.000000 0.000000 3.169659 -2.451475 -20.976948 -2.174693 0.768778 -0.052848 -1.299474 1.536019 1.585771 0.000000 0.000000 0.000000
87.189349 70.524677 391.518992 -1.814607 0.247132 22.031788 0.530476 -0.529723 -22.061021 -0.067673 -0.010233 -0.054857 1.956899 3.031936 0.384206 0.000000 0.000000 0.000000 2.035890 -0.015976 0.063974 -6.249870 -3.254412 2.186672 12.840137 4.397084 -3.857829 -0.996314 -1.498403 -0.233173 0.000000 0.000000 0.000000 0.000000 0.000000 0.000000 -15.496074 14.413738 6.345272 -5.491353 6.074726 0.531509 -2.654931 -9.660123 -5.397841 7.984576 12.724955 3.474032 0.000000 0.000000 0.000000 0.000000 0.000000 0.000000 3.258375 -0.727373 -22.095162 -1.477492 -0.796697 0.093474 7.848596 -0.688001 -9.666558 0.000000 0.000000 0.000000 3.618336 -2.600412 -21.857116 -2.172656 -0.498824 -0.147995 -3.972798 -1.574971 3.205628 0.000000 0.000000 0.000000
